<svg width="40" height="40" viewBox="0 0 40 40" fill="none" xmlns="http://www.w3.org/2000/svg">
<path d="M20 40C31.0229 40 40 31.0315 40 20C40 8.96849 31.0315 0 20 0C8.96849 0 0 8.96849 0 20C0 31.0315 8.96849 40 20 40ZM18.1528 1.82132L19.6547 4.2814H20.3625L21.8558 1.82132C30.4532 2.69314 37.3155 9.54683 38.1873 18.1441L35.7272 19.6461V20.3539L38.1873 21.8472C37.3155 30.4445 30.4618 37.3069 21.8645 38.1787L20.3625 35.7186H19.6547L18.1614 38.1787C9.56409 37.3069 2.70177 30.4532 1.82995 21.8558L4.29003 20.3539V19.6461L1.82995 18.1528C2.70177 9.55546 9.55546 2.69314 18.1528 1.82132Z" fill="#00D1B5"/>
<path d="M20.0041 31.9036C26.5643 31.9036 31.8988 26.5692 31.8988 20.0089C31.8988 13.4487 26.5643 8.11426 20.0041 8.11426C13.4439 8.11426 8.10938 13.4487 8.10938 20.0089C8.10938 26.5692 13.4439 31.9036 20.0041 31.9036ZM9.61132 22.0979C11.0701 22.9956 13.4525 23.5912 16.1284 23.8846C16.4218 26.5519 17.0174 28.9429 17.9152 30.4017C13.746 29.5644 10.4572 26.2757 9.61995 22.1065L9.61132 22.0979ZM20.0041 9.4004C20.8845 9.4004 22.0757 11.8864 22.5677 16.0038C21.7218 15.9433 20.8672 15.9088 20.0041 15.9088C19.1409 15.9088 18.2863 15.9433 17.4404 16.0038C17.9324 11.8777 19.1236 9.4004 20.0041 9.4004ZM20.0041 17.2036C20.9536 17.2036 21.8513 17.2468 22.6972 17.3072C22.7663 18.1531 22.8008 19.0422 22.8008 20.0003C22.8008 20.9585 22.7576 21.8475 22.6972 22.6935C21.8513 22.7539 20.9622 22.797 20.0041 22.797C19.0459 22.797 18.1568 22.7539 17.3109 22.6935C17.2419 21.8475 17.2073 20.9585 17.2073 20.0003C17.2073 19.0422 17.2505 18.1531 17.3109 17.3072C18.1568 17.2468 19.0459 17.2036 20.0041 17.2036ZM24.0092 17.4367C28.1353 17.9287 30.6126 19.1199 30.6126 20.0003C30.6126 20.8808 28.1266 22.072 24.0092 22.564C24.0697 21.7181 24.1042 20.8635 24.1042 20.0003C24.1042 19.1371 24.0697 18.2826 24.0092 17.4367ZM20.0041 30.6089C19.1236 30.6089 17.9324 28.1229 17.4404 24.0055C18.2863 24.0659 19.1409 24.1004 20.0041 24.1004C20.8672 24.1004 21.7218 24.0659 22.5677 24.0055C22.0757 28.1315 20.8845 30.6089 20.0041 30.6089ZM16.0075 22.564C11.8815 22.072 9.40415 20.8808 9.40415 20.0003C9.40415 19.1199 11.8901 17.9287 16.0075 17.4367C15.9471 18.2826 15.9126 19.1371 15.9126 20.0003C15.9126 20.8635 15.9471 21.7181 16.0075 22.564ZM22.1016 30.3931C22.9993 28.9343 23.5949 26.5519 23.8884 23.876C26.5556 23.5825 28.938 22.9869 30.4054 22.0892C29.5682 26.2584 26.2794 29.5471 22.1102 30.3844L22.1016 30.3931ZM30.4054 17.9114C28.9467 17.0137 26.5643 16.4181 23.8884 16.1246C23.5949 13.4574 22.9993 11.0663 22.1016 9.60756C26.2708 10.4449 29.5595 13.7336 30.3968 17.9028L30.4054 17.9114ZM17.9152 9.60756C17.0174 11.0663 16.4218 13.4487 16.1284 16.1246C13.4611 16.4181 11.0701 17.0137 9.61132 17.9114C10.4486 13.7422 13.7373 10.4535 17.9065 9.6162L17.9152 9.60756Z" fill="#00D1B5"/>
</svg>
