<svg width="30" height="30" viewBox="0 0 30 30" fill="none" xmlns="http://www.w3.org/2000/svg">
<g clip-path="url(#clip0_4544_1577)">
<path d="M15.8754 0C16.2342 0.0885609 16.6357 0.0774908 17.0088 0.124934C23.6149 0.988403 29.0132 6.37006 29.8637 12.99C29.9111 13.3632 29.9 13.7649 29.9886 14.1239C29.9649 14.7074 30.0202 15.3005 29.9886 15.8824C29.2503 29.1824 12.5099 34.9721 3.69391 24.8777C-4.49294 15.5013 1.78116 0.686347 14.1191 0H15.8754ZM14.2235 2.3611C4.6898 2.93516 -0.880865 13.6858 4.31357 21.7986C9.22821 29.4718 20.3901 29.6505 25.4928 22.0801C31.3559 13.3838 24.6313 1.73484 14.2235 2.36268V2.3611Z" fill="#9AF1DC"/>
<path d="M8.34187 14.3802C8.90937 13.7697 9.61756 14.0085 10.1677 14.475C11.1509 15.31 11.9587 16.4297 12.9688 17.2268L20.0396 10.1735C21.0023 9.38911 22.3523 10.3965 21.8733 11.5399C19.3425 14.3722 16.5034 16.9563 13.8572 19.6938C13.2913 20.1651 12.7807 20.2884 12.1594 19.8077C11.0576 18.5061 9.38993 17.3106 8.35135 15.9995C7.95616 15.5014 7.88502 14.8704 8.34345 14.3786L8.34187 14.3802Z" fill="#9AF1DC"/>
</g>
<defs>
<clipPath id="clip0_4544_1577">
<rect width="30" height="30" fill="white"/>
</clipPath>
</defs>
</svg>
