<svg width="19" height="19" viewBox="0 0 19 19" fill="none" xmlns="http://www.w3.org/2000/svg">
<path d="M1.05188 8.55556H2.88889C3.93209 8.55556 4.77778 9.40124 4.77778 10.4444V11.3889C4.77778 12.4321 5.62346 13.2778 6.66667 13.2778C7.70987 13.2778 8.55556 14.1235 8.55556 15.1667V17.9481M5.72222 1.88355V3.36111C5.72222 4.66512 6.77933 5.72222 8.08333 5.72222H8.55556C9.59876 5.72222 10.4444 6.56791 10.4444 7.61111C10.4444 8.65431 11.2901 9.5 12.3333 9.5C13.3765 9.5 14.2222 8.65431 14.2222 7.61111C14.2222 6.56791 15.0679 5.72222 16.1111 5.72222L17.1165 5.72222M12.3333 17.5163V15.1667C12.3333 14.1235 13.179 13.2778 14.2222 13.2778H17.1165M18 9.5C18 14.1944 14.1944 18 9.5 18C4.80558 18 1 14.1944 1 9.5C1 4.80558 4.80558 1 9.5 1C14.1944 1 18 4.80558 18 9.5Z" stroke="#003A32" stroke-width="1.5" stroke-linecap="round" stroke-linejoin="round"/>
</svg>
